<?xml version="1.0" encoding="UTF-8" standalone="no"?>
<!-- Created with Inkscape (http://www.inkscape.org/) -->

<svg
   xmlns:dc="http://purl.org/dc/elements/1.1/"
   xmlns:cc="http://creativecommons.org/ns#"
   xmlns:rdf="http://www.w3.org/1999/02/22-rdf-syntax-ns#"
   xmlns:svg="http://www.w3.org/2000/svg"
   xmlns="http://www.w3.org/2000/svg"
   xmlns:sodipodi="http://sodipodi.sourceforge.net/DTD/sodipodi-0.dtd"
   xmlns:inkscape="http://www.inkscape.org/namespaces/inkscape"
   width="210mm"
   height="297mm"
   id="svg2"
   version="1.1"
   inkscape:version="0.48.2 r9819"
   sodipodi:docname="dessin.svg">
  <defs
     id="defs4">
    <marker
       inkscape:stockid="Arrow1Lend"
       orient="auto"
       refY="0.0"
       refX="0.0"
       id="Arrow1Lend"
       style="overflow:visible;">
      <path
         id="path4121"
         d="M 0.0,0.0 L 5.0,-5.0 L -12.5,0.0 L 5.0,5.0 L 0.0,0.0 z "
         style="fill-rule:evenodd;stroke:#000000;stroke-width:1.0pt;marker-start:none;"
         transform="scale(0.8) rotate(180) translate(12.5,0)" />
    </marker>
    <marker
       inkscape:stockid="Arrow1Lend"
       orient="auto"
       refY="0"
       refX="0"
       id="Arrow1Lend-1"
       style="overflow:visible">
      <path
         inkscape:connector-curvature="0"
         id="path4121-7"
         d="M 0,0 5,-5 -12.5,0 5,5 0,0 z"
         style="fill-rule:evenodd;stroke:#000000;stroke-width:1pt;marker-start:none"
         transform="matrix(-0.8,0,0,-0.8,-10,0)" />
    </marker>
  </defs>
  <sodipodi:namedview
     id="base"
     pagecolor="#ffffff"
     bordercolor="#666666"
     borderopacity="1.0"
     inkscape:pageopacity="0.0"
     inkscape:pageshadow="2"
     inkscape:zoom="2.5206772"
     inkscape:cx="390.6622"
     inkscape:cy="559.16914"
     inkscape:document-units="px"
     inkscape:current-layer="layer1"
     showgrid="false"
     inkscape:window-width="1920"
     inkscape:window-height="1005"
     inkscape:window-x="-9"
     inkscape:window-y="-9"
     inkscape:window-maximized="1" />
  <metadata
     id="metadata7">
    <rdf:RDF>
      <cc:Work
         rdf:about="">
        <dc:format>image/svg+xml</dc:format>
        <dc:type
           rdf:resource="http://purl.org/dc/dcmitype/StillImage" />
        <dc:title />
      </cc:Work>
    </rdf:RDF>
  </metadata>
  <g
     inkscape:label="Calque 1"
     inkscape:groupmode="layer"
     id="layer1">
    <rect
       style="fill:#ff0000;fill-opacity:1;stroke:#ff0000;stroke-width:2.61039041999999990;stroke-miterlimit:4;stroke-opacity:1;stroke-dasharray:none"
       id="rect2991"
       width="97.38961"
       height="97.38961"
       x="298.03442"
       y="524.03735" />
    <rect
       style="fill:#0000ff;fill-opacity:1;stroke:#0000ff;stroke-width:2.61039042;stroke-miterlimit:4;stroke-opacity:1;stroke-dasharray:none"
       id="rect2991-1"
       width="97.38961"
       height="97.38961"
       x="460.29538"
       y="522.44751" />
    <path
       style="fill:#ffffff;fill-opacity:1;stroke:#ffffff;stroke-width:3.58104563000000020;stroke-miterlimit:4;stroke-opacity:1;stroke-dasharray:none"
       d="m 317.29189,538.28343 c -0.64256,0.41965 4.09684,6.81482 13.09336,17.6677 16.10713,19.43071 16.05783,18.20993 0.67325,16.66859 -5.01454,-0.50239 -9.22567,-0.80511 -9.35807,-0.67271 -0.36352,0.36352 54.73814,37.97317 55.13268,37.63083 0.63294,-0.54922 -26.08197,-60.30786 -26.77027,-59.88247 -0.37433,0.23135 -0.96645,4.79623 -1.31581,10.14416 -0.34936,5.34794 -0.89721,10.12297 -1.21744,10.61118 -0.32024,0.48821 -6.82669,-6.68076 -14.4588,-15.93105 -7.6321,-9.2503 -14.07798,-16.83565 -14.32418,-16.85634 -0.2462,-0.0207 -0.90082,0.25835 -1.45472,0.62011 z"
       id="path4595"
       inkscape:connector-curvature="0" />
    <rect
       style="fill:#ff0000;fill-opacity:1;stroke:#ff0000;stroke-width:2.61039042;stroke-miterlimit:4;stroke-opacity:1;stroke-dasharray:none"
       id="rect2991-4"
       width="97.38961"
       height="97.38961"
       x="142.52365"
       y="-620.63049"
       transform="scale(1,-1)" />
    <path
       style="fill:#ffffff;fill-opacity:1;stroke:#ffffff;stroke-width:3.58104563;stroke-miterlimit:4;stroke-opacity:1;stroke-dasharray:none"
       d="m 161.78112,606.38442 c -0.64256,-0.41965 4.09684,-6.81482 13.09336,-17.6677 16.10713,-19.43071 16.05783,-18.20993 0.67325,-16.66859 -5.01454,0.50239 -9.22567,0.80511 -9.35807,0.67271 -0.36352,-0.36352 54.73814,-37.97317 55.13268,-37.63083 0.63294,0.54922 -26.08197,60.30786 -26.77027,59.88247 -0.37433,-0.23135 -0.96645,-4.79623 -1.31581,-10.14416 -0.34936,-5.34794 -0.89721,-10.12297 -1.21744,-10.61118 -0.32024,-0.48821 -6.82669,6.68076 -14.4588,15.93105 -7.6321,9.2503 -14.07798,16.83565 -14.32418,16.85634 -0.2462,0.0207 -0.90082,-0.25835 -1.45472,-0.62011 z"
       id="path4595-0"
       inkscape:connector-curvature="0" />
    <path
       style="fill:#008000;fill-opacity:1;stroke:#008000;stroke-width:1.58687519999999990;stroke-miterlimit:4;stroke-opacity:1;stroke-dasharray:none"
       d="m 141.52281,572.10041 0,-49.78821 49.7882,0 49.78821,0 0,49.78821 0,49.78821 -49.78821,0 -49.7882,0 0,-49.78821 z m 26.05106,33.02684 c 1.94323,-2.2365 4.94818,-5.76234 6.67765,-7.8352 1.72948,-2.07285 6.09685,-7.23159 9.70528,-11.46386 l 6.56078,-7.69504 0.28978,2.53769 c 0.15938,1.39574 0.55456,5.12629 0.87818,8.29012 0.55752,5.45051 1.62649,9.92804 2.43252,10.18889 0.70668,0.2287 4.4413,-7.15742 11.70162,-23.14275 11.50522,-25.33153 19.53143,-44.58196 18.86549,-45.2479 -0.61646,-0.61646 -64.43817,42.85735 -64.50349,43.93822 -0.0275,0.45524 18.8837,-0.71072 23.3337,-1.43864 l 1.3289,-0.21737 -1.12265,1.51309 c -0.61746,0.83221 -4.26222,5.35135 -8.09949,10.04255 -12.8821,15.74885 -15.85027,19.85 -15.85027,21.90044 0,0.96611 0.26719,1.26933 1.68605,1.91337 0.92733,0.42093 1.88783,0.76925 2.13443,0.77404 0.2466,0.005 2.03829,-1.82115 3.98152,-4.05765 l 0,0 z"
       id="path3819"
       inkscape:connector-curvature="0" />
    <text
       xml:space="preserve"
       style="font-size:128.35647583px;font-style:normal;font-weight:normal;line-height:125%;letter-spacing:0px;word-spacing:0px;fill:#000000;fill-opacity:1;stroke:none;font-family:Sans"
       x="532.56464"
       y="558.25494"
       id="text4583"
       sodipodi:linespacing="125%"
       transform="scale(0.88714,1.1272178)"><tspan
         sodipodi:role="line"
         id="tspan4585"
         x="532.56464"
         y="558.25494"
         style="font-size:150px;fill:#ffffff;fill-opacity:1">=</tspan></text>
  </g>
</svg>
